Coordinates
version=1
nRows=26
nColumns=22
inDegrees=yes

Units are S.I. units (second, meters, Newtons, ...)
If the header above contains a line with 'inDegrees', this indicates whether rotational values are in degrees (yes) or radians (no).

endheader
time	pelvis_tilt	pelvis_list	pelvis_rotation	pelvis_tx	pelvis_ty	pelvis_tz	hip_flexion_r	hip_adduction_r	hip_rotation_r	knee_angle_r	ankle_angle_r	subtalar_angle_r	hip_flexion_l	hip_adduction_l	hip_rotation_l	knee_angle_l	ankle_angle_l	subtalar_angle_l	lumbar_extension	lumbar_bending	lumbar_rotation
      1.69000000	     -9.94200293	      6.47252342	    -16.41013806	     -0.03594948	      0.91533457	      0.14891126	     48.54844174	     -7.01398528	      1.02709360	    -72.19420261	     19.73380857	     -8.00956045	     26.99314905	      9.75799351	     -6.87841825	    -45.52949662	     32.27414545	     -5.99173721	     -9.78055518	     -2.79772972	      1.84496655
      1.70000000	     -9.77824202	      6.43913680	    -16.04138624	     -0.01654695	      0.91769125	      0.15366442	     49.64834795	     -7.17802493	      0.23075239	    -69.17700228	     19.83575118	     -7.48115109	     24.77253296	     10.04504226	     -6.38288215	    -44.27236579	     32.23506526	     -5.70843888	     -9.69078572	     -2.61078036	      0.83205716
      1.71000000	     -9.63936615	      6.36275750	    -15.70306618	      0.00312672	      0.92018926	      0.15861506	     50.48792241	     -7.26424721	     -0.65269523	    -65.72298144	     19.56537124	     -6.67869521	     22.49842416	     10.23215794	     -5.86696119	    -42.91551711	     32.07579323	     -5.29072279	     -9.55426871	     -2.37940550	     -0.10078644
      1.72000000	     -9.54956251	      6.23337394	    -15.37610939	      0.02308384	      0.92273830	      0.16374777	     51.07213678	     -7.27328248	     -1.65664092	    -61.84883251	     18.89366676	     -5.68638204	     20.21734962	     10.30677982	     -5.30384296	    -41.50429073	     31.71309108	     -4.76054583	     -9.33661134	     -2.08640462	     -0.94764072
      1.73000000	     -9.50153628	      6.06328584	    -15.07630821	      0.04332170	      0.92527117	      0.16911301	     51.40816351	     -7.19088036	     -2.74340938	    -57.60431157	     17.70306782	     -4.33488879	     17.94517542	     10.26478157	     -4.74256968	    -40.06576560	     31.17776762	     -4.06603799	     -9.04106908	     -1.75489772	     -1.71458498
      1.74000000	     -9.48773255	      5.85925662	    -14.80443759	      0.06385292	      0.92771724	      0.17472293	     51.49992238	     -7.01266674	     -3.88956360	    -53.05198726	     15.94249667	     -2.52579484	     15.70129087	     10.10981839	     -4.20968646	    -38.63973747	     30.46718993	     -3.19667971	     -8.67027139	     -1.39411263	     -2.40691073
      1.75000000	     -9.49173998	      5.62560399	    -14.55111845	      0.08466943	      0.93000451	      0.18061513	     51.35155648	     -6.72993647	     -5.04517832	    -48.28166657	     13.62139602	     -0.17163357	     13.50088935	      9.85108983	     -3.70994166	    -37.28012933	     29.58326460	     -2.14846834	     -8.24128166	     -1.02423434	     -3.07030840
      1.76000000	     -9.49920030	      5.38226536	    -14.30114621	      0.10579130	      0.93203686	      0.18674921	     50.99254687	     -6.37393790	     -6.17635829	    -43.42765512	     10.84674038	      2.79391644	     11.36799181	      9.52355354	     -3.23457214	    -36.04632555	     28.53084013	     -0.92215916	     -7.75876773	     -0.66791058	     -3.70571443
      1.77000000	     -9.49313525	      5.15340909	    -14.03900837	      0.12719525	      0.93372384	      0.19311005	     50.46624156	     -5.97508862	     -7.22385902	    -38.66241165	      7.81274557	      6.32812343	      9.33591816	      9.16638048	     -2.76014172	    -35.01600131	     27.30555020	      0.44993685	     -7.24059547	     -0.36353549	     -4.33553845
      1.78000000	     -9.47033801	      4.96206651	    -13.74422484	      0.14882662	      0.93495888	      0.19959243	     49.84695403	     -5.58752060	     -8.16992267	    -34.19844731	      4.76994343	     10.23694168	      7.46593843	      8.82423797	     -2.23701684	    -34.29119173	     25.90660112	      1.90400562	     -6.69390637	     -0.12923533	     -4.96489150
      1.79000000	     -9.43805959	      4.84101286	    -13.40116921	      0.17057309	      0.93564857	      0.20612817	     49.23687705	     -5.26862425	     -9.00309850	    -30.28106810	      1.96217122	     14.21115318	      5.84333893	      8.54053860	     -1.63513622	    -33.98517512	     24.35118125	      3.37857177	     -6.11908543	     -0.00405226	     -5.61168885
      1.80000000	     -9.39502802	      4.78158145	    -13.00557847	      0.19230412	      0.93577710	      0.21260884	     48.69845595	     -5.04429957	     -9.76598545	    -27.11867381	     -0.37913516	     17.75563262	      4.55035511	      8.31855156	     -0.94681220	    -34.23870454	     22.60057639	      4.79830845	     -5.54506477	      0.03345178	     -6.27590727
      1.81000000	     -9.35932896	      4.78387673	    -12.57371755	      0.21387911	      0.93530111	      0.21897447	     48.32154549	     -4.92965710	    -10.51906889	    -24.90601335	     -2.17413794	     20.37622260	      3.67203943	      8.16648253	     -0.19478899	    -35.14984137	     20.69491369	      6.09566932	     -4.97273374	     -0.00715099	     -6.92999872
      1.82000000	     -9.32695333	      4.80714385	    -12.12955575	      0.23516229	      0.93424533	      0.22521317	     48.11797299	     -4.88511048	    -11.27587219	    -23.72904788	     -3.38515982	     21.61314136	      3.25278458	      8.05764717	      0.59125804	    -36.79846590	     18.64053223	      7.21825477	     -4.43978197	     -0.08128950	     -7.52447065
      1.83000000	     -9.28156506	      4.81255705	    -11.71419182	      0.25608679	      0.93261738	      0.23134747	     48.07161934	     -4.86230277	    -12.02304887	    -23.60232609	     -4.00968174	     21.15961704	      3.29591560	      7.95532288	      1.30187156	    -39.20574906	     16.43639780	      8.11084204	     -3.98371656	     -0.13723570	     -8.03448943
      1.84000000	     -9.21719783	      4.76055121	    -11.36833875	      0.27661527	      0.93038546	      0.23742664	     48.16146877	     -4.79897626	    -12.69068160	    -24.46452290	     -4.05546079	     18.83955871	      3.78487401	      7.82126095	      1.86602897	    -42.33352330	     14.11884333	      8.79207591	     -3.62091805	     -0.12589012	     -8.41444131
      1.85000000	     -9.06954022	      4.62451437	    -11.13688982	      0.29671202	      0.92763604	      0.24352257	     48.28998896	     -4.64203049	    -13.16929284	    -26.15693162	     -3.61051617	     14.80362891	      4.61242976	      7.62302911	      2.20529342	    -46.06820703	     11.70778018	      9.18620218	     -3.43887470	     -0.03133551	     -8.62267180
      1.86000000	     -8.82695012	      4.37950694	    -11.06278011	      0.31640984	      0.92436151	      0.24967911	     48.43888646	     -4.35026722	    -13.43647639	    -28.55108407	     -2.68486800	      9.62530955	      5.70905713	      7.31398130	      2.26654822	    -50.27183707	      9.29679454	      9.29952639	     -3.44552558	      0.18162518	     -8.61410119
      1.87000000	     -8.45453729	      4.00547825	    -11.16917070	      0.33569842	      0.92069007	      0.25594118	     48.53962163	     -3.89088941	    -13.46755770	    -31.44854735	     -1.32708038	      4.14478124	      6.97045963	      6.84734391	      2.04181542	    -54.77805272	      7.02199113	      9.15296253	     -3.68780234	      0.52600623	     -8.36949078
      1.88000000	     -8.04697292	      3.50092331	    -11.44505843	      0.35451104	      0.91657059	      0.26230912	     48.66888570	     -3.24485965	    -13.29080277	    -34.67558710	      0.40543254	     -0.70929355	      8.45201668	      6.17299134	      1.57129335	    -59.46764361	      5.11048637	      8.77645984	     -4.05377948	      1.01666236	     -7.88242917
      1.89000000	     -7.43982934	      2.82643204	    -11.92710330	      0.37287930	      0.91254284	      0.26890471	     48.57506540	     -2.36121998	    -12.91748740	    -38.00467175	      2.39498792	     -4.57339114	      9.88153930	      5.25425182	      0.88810826	    -64.13368977	      3.63787888	      8.23439027	     -4.75772423	      1.64295752	     -7.14684448
      1.90000000	     -6.87103768	      2.00710300	    -12.54014167	      0.39069442	      0.90839823	      0.27566267	     48.45604018	     -1.25364897	    -12.45677572	    -41.27703354	      4.54161024	     -7.17173644	     11.50098952	      4.06283521	      0.11611234	    -68.73086880	      2.82381150	      7.53177514	     -5.51424667	      2.40933965	     -6.18710463
      1.91000000	     -6.33509613	      1.07265486	    -13.22949873	      0.40795261	      0.90440018	      0.28253240	     48.23769179	      0.01833211	    -12.00540344	    -44.33574969	      6.73632564	     -8.73470251	     13.26993056	      2.64583369	     -0.62067257	    -73.14323495	      2.64445079	      6.67979464	     -6.32841779	      3.26319991	     -5.07315095
      1.92000000	     -5.88972504	      0.07431227	    -13.91636338	      0.42466070	      0.90066279	      0.28934425	     47.93617559	      1.35353762	    -11.66614400	    -47.07696567	      8.88595291	     -9.55455036	     15.24609354	      1.09137634	     -1.18406053	    -77.28663459	      2.99585847	      5.70069932	     -7.11692195	      4.16647042	     -3.88225809
      1.93000000	     -5.55893981	     -0.90176374	    -14.54288402	      0.44082236	      0.89727121	      0.29597640	     47.57340920	      2.63219150	    -11.47633415	    -49.45606396	     10.94366685	     -9.92330275	     17.46817952	     -0.46845753	     -1.49229884	    -81.07464476	      3.74301682	      4.60993401	     -7.82146065	      5.02751757	     -2.69849222
      1.94000000	     -5.34925329	     -1.78857375	    -15.05672979	      0.45647944	      0.89428809	      0.30227732	     47.16936395	      3.74683771	    -11.45465561	    -51.47360400	     12.89523952	    -10.02172480	     19.95718972	     -1.90543093	     -1.49534431	    -84.43265568	      4.73180901	      3.48740751	     -8.39907342	      5.78994380	     -1.58032044
